HIERARCHY
ROOT Hips
{
	OFFSET -3.958830 18.904000 13.208200
	CHANNELS 6 Xposition Yposition Zposition Zrotation Yrotation Xrotation 
	JOINT LHipJoint
	{
		OFFSET 0.000000 0.000000 0.000000
		CHANNELS 3 Zrotation Yrotation Xrotation
		JOINT LeftUpLeg
		{
			OFFSET 1.800000 -1.400000 0.085000
			CHANNELS 3 Zrotation Yrotation Xrotation
			JOINT LeftLeg
			{
				OFFSET 2.215000 -6.000000 0.000000
				CHANNELS 3 Zrotation Yrotation Xrotation
				JOINT LeftFoot
				{
					OFFSET 2.500000 -6.900000 0.000000
					CHANNELS 3 Zrotation Yrotation Xrotation
					JOINT LeftToeBase
					{
						OFFSET 0.200000 -0.500000 1.950000
						CHANNELS 3 Zrotation Yrotation Xrotation
						End Site
						{
							OFFSET 0.000000 0.000000 0.000000
						}
					}
				}
			}
		}
	}
	JOINT RHipJoint
	{
		OFFSET 0.000000 0.000000 0.000000
		CHANNELS 3 Zrotation Yrotation Xrotation
		JOINT RightUpLeg
		{
			OFFSET -1.800000 -1.400000 0.085000
			CHANNELS 3 Zrotation Yrotation Xrotation
			JOINT RightLeg
			{
				OFFSET -2.215000 -6.000000 0.000000
				CHANNELS 3 Zrotation Yrotation Xrotation
				JOINT RightFoot
				{
					OFFSET -2.500000 -6.900000 0.000000
					CHANNELS 3 Zrotation Yrotation Xrotation
					JOINT RightToeBase
					{
						OFFSET -0.200000 -0.500000 1.950000
						CHANNELS 3 Zrotation Yrotation Xrotation
						End Site
						{
							OFFSET 0.000000 0.000000 0.000000
						}
					}
				}
			}
		}
	}
	JOINT LowerBack
	{
		OFFSET 0.000000 0.000000 0.000000
		CHANNELS 3 Zrotation Yrotation Xrotation
		JOINT Spine
		{
			OFFSET -0.087000 1.940000 -0.288900
			CHANNELS 3 Zrotation Yrotation Xrotation
			JOINT Spine1
			{
				OFFSET 0.000000 1.950000 0.060000
				CHANNELS 3 Zrotation Yrotation Xrotation
				JOINT Neck
				{
					OFFSET 0.000000 0.000000 0.000000
					CHANNELS 3 Zrotation Yrotation Xrotation
					JOINT Neck1
					{
						OFFSET 0.000000 1.600000 0.340000
						CHANNELS 3 Zrotation Yrotation Xrotation
						JOINT Head
						{
							OFFSET 0.000000 1.667000 -0.240000
							CHANNELS 3 Zrotation Yrotation Xrotation
							End Site
							{
								OFFSET 0.000000 0.000000 0.000000
							}
						}
					}
				}
				JOINT LeftShoulder
				{
					OFFSET 0.000000 0.000000 0.000000
					CHANNELS 3 Zrotation Yrotation Xrotation
					JOINT LeftArm
					{
						OFFSET 2.700000 1.550000 -0.730000
						CHANNELS 3 Zrotation Yrotation Xrotation
						JOINT LeftForeArm
						{
							OFFSET 5.450000 0.000000 0.000000
							CHANNELS 3 Zrotation Yrotation Xrotation
							JOINT LeftHand
							{
								OFFSET 3.450000 0.000000 0.000000
								CHANNELS 3 Zrotation Yrotation Xrotation
								JOINT LeftHandIndex1
								{
									OFFSET 0.750000 0.000000 0.000000
									CHANNELS 3 Zrotation Yrotation Xrotation
									End Site
									{
										OFFSET 0.000000 0.000000 0.000000
									}
								}
							}
						}
					}
				}
				JOINT RightShoulder
				{
					OFFSET 0.000000 0.000000 0.000000
					CHANNELS 3 Zrotation Yrotation Xrotation
					JOINT RightArm
					{
						OFFSET -2.700000 1.550000 -0.730000
						CHANNELS 3 Zrotation Yrotation Xrotation
						JOINT RightForeArm
						{
							OFFSET -5.450000 0.000000 0.000000
							CHANNELS 3 Zrotation Yrotation Xrotation
							JOINT RightHand
							{
								OFFSET -3.450000 0.000000 0.000000
								CHANNELS 3 Zrotation Yrotation Xrotation
								JOINT RightHandIndex1
								{
									OFFSET -0.750000 0.000000 0.000000
									CHANNELS 3 Zrotation Yrotation Xrotation
									End Site
									{
										OFFSET 0.000000 0.000000 0.000000
									}
								}
							}
						}
					}
				}
			}
		}
	}
}
MOTION
Frames: 7
Frame Time: 0.016667
1.757400 16.887080 -3.795040 -2.858640 -31.927374 -1.159305 -15.451999 14.189426 3.758988 12.579204 -5.243739 -11.672721 -19.352712 16.370355 34.317909 1.377170 8.453675 1.680230 0.223870 0.010420 0.171160 17.991264 -8.463487 3.931802 9.961794 8.649519 -30.850363 -0.086746 -5.320429 40.348383 -0.622715 -4.337221 3.027146 -0.360730 -0.213490 -0.129540 -2.318071 -6.820844 -8.351241 3.819334 -10.117628 32.735794 7.759855 -3.663449 -36.109792 3.836767 -8.177352 -12.849387 -39.252413 26.881132 32.397717 5.832590 14.212730 -2.632270 0.722498 17.384283 6.460063 -36.460261 13.125046 -2.759001 40.392564 -65.206895 -19.734744 -2.735944 2.905197 0.628130 -0.465160 0.258590 0.175180 0.919828 -17.604743 2.332719 55.238730 -16.151231 -10.082264 -34.854002 40.424342 -1.881023 2.782600 -1.318774 0.047330 -0.070530 -0.292390 -0.040630 
1.777930 16.788170 -3.754200 -3.256078 -33.135303 -1.863420 -15.482594 14.113110 3.764661 12.334229 -5.735519 -12.196076 -18.465961 17.201910 38.056639 1.414387 8.984869 1.472493 0.272150 0.059090 0.250310 17.985137 -8.370113 3.962444 8.533895 9.177705 -31.756876 2.223137 -7.139093 44.083593 -0.811716 -5.148264 2.724914 -0.318860 -0.273260 -0.124910 -2.284188 -6.853906 -8.474007 4.714008 -9.052872 33.248712 6.513439 -2.545994 -35.693974 4.189006 -7.408868 -12.883213 -38.354396 26.683092 36.741218 4.185560 14.428150 -3.639980 -1.776095 14.055901 5.682779 -35.325714 10.111906 -2.867008 39.723775 -54.287989 -14.963276 -2.793559 2.825218 0.673990 -0.477740 0.304290 0.148090 2.591762 -14.109867 3.146329 57.392439 -17.376683 -10.192782 -46.470765 33.782151 -3.492231 2.854229 -1.295189 0.042300 -0.057450 -0.300020 -0.085830 
1.813950 16.675770 -3.717490 -3.970784 -33.581846 -3.344657 -15.485945 14.013586 3.743992 12.186693 -6.369389 -11.873718 -17.269477 17.921225 42.183051 1.467502 9.600252 1.248516 0.342110 0.125400 0.352950 18.006459 -8.340784 3.937957 7.059649 9.314285 -32.027353 4.547001 -9.383861 47.893268 -1.044252 -6.115674 2.367176 -0.257820 -0.335600 -0.108320 -2.343200 -6.794021 -8.548879 6.404506 -8.702624 34.371854 4.491903 -2.214344 -33.862869 4.209425 -6.842271 -12.755259 -37.470954 26.009055 40.272927 2.001610 14.495120 -5.184260 -5.414515 10.093021 4.691015 -32.587031 6.242436 -2.911690 39.574301 -43.071352 -11.515203 -2.876430 2.775753 0.704850 -0.482420 0.346640 0.123220 5.597076 -10.086365 3.751739 59.027723 -17.588810 -11.107402 -54.446032 26.207393 -3.620203 2.903558 -1.385343 0.043150 -0.051330 -0.318290 -0.133240 
1.844800 16.560560 -3.688780 -3.806278 -33.431853 -5.562422 -15.472955 13.896938 3.758283 11.338950 -7.137264 -11.012694 -16.554204 18.593483 45.843200 1.534286 10.199627 1.051326 0.397070 0.169050 0.443360 18.033014 -8.406101 3.847393 5.200263 8.938685 -32.037691 6.260185 -11.495954 51.261839 -1.263041 -7.035546 2.035619 -0.208830 -0.384030 -0.087150 -2.423235 -6.613805 -8.610392 6.698142 -8.495741 35.677828 3.188069 -2.441901 -31.484954 4.085969 -6.376149 -12.679108 -36.066709 25.031955 43.306321 -0.153100 14.525650 -7.331900 -8.305651 6.467582 4.038412 -29.702414 2.558500 -3.000111 39.363463 -33.217212 -8.945652 -2.958655 2.755330 0.740770 -0.481640 0.378550 0.097390 8.005487 -6.632128 4.110849 60.070995 -16.715815 -12.244239 -58.484556 20.154371 -2.839274 2.908180 -1.474453 0.034480 -0.046720 -0.328140 -0.180630 
1.875420 16.448810 -3.649960 -3.613554 -33.242386 -7.232134 -15.460959 13.785220 3.746437 10.103394 -7.708619 -10.069610 -15.760697 19.021622 48.824920 1.611598 10.659851 0.913055 0.423260 0.194100 0.494090 18.065320 -8.434650 3.819871 3.877749 8.748114 -32.536547 6.819987 -13.064511 54.787135 -1.451590 -7.887152 1.745817 -0.174230 -0.403060 -0.072530 -2.528216 -6.447207 -8.653239 7.126917 -8.951090 36.465272 1.898790 -3.289636 -29.363896 4.085828 -6.157567 -12.730289 -34.543381 24.398884 44.794462 -1.857320 15.149510 -8.014610 -9.839666 3.815564 3.919842 -27.364314 0.785294 -3.185724 38.402471 -24.779992 -6.582915 -3.044957 2.774434 0.741530 -0.462470 0.386630 0.079870 8.849766 -4.144611 4.087304 60.761630 -14.538037 -12.715297 -60.128902 16.074147 -1.982346 2.893160 -1.539877 0.027970 -0.047550 -0.330710 -0.208580 
1.892280 16.350930 -3.602940 -3.293191 -33.157114 -8.361406 -15.451102 13.663950 3.738258 8.874402 -8.071165 -9.078762 -15.602632 19.438936 50.546667 1.680289 10.981361 0.834633 0.432960 0.202430 0.517820 18.098215 -8.436471 3.835001 3.051606 8.743806 -33.333803 6.659290 -14.136797 58.177966 -1.614212 -8.608034 1.517205 -0.155170 -0.397440 -0.069540 -2.637878 -6.277743 -8.664894 7.244015 -9.932523 37.179130 1.191200 -4.549812 -28.864564 3.970070 -6.195635 -12.543795 -33.799803 24.589843 44.869757 -2.700400 15.928880 -8.870390 -9.943695 3.230913 3.936481 -26.203629 0.630432 -3.091815 37.812203 -19.156403 -4.883054 -3.104646 2.781128 0.745180 -0.449010 0.383870 0.071990 8.731946 -3.825622 3.476415 60.304147 -11.719456 -11.944751 -60.550780 15.044769 -1.826699 2.867985 -1.542391 0.013680 -0.031490 -0.326660 -0.222680 
1.895520 16.276030 -3.552910 -2.720583 -33.202391 -9.438968 -15.468007 13.621810 3.741512 7.752640 -8.219976 -7.887799 -15.789960 19.838447 51.429249 1.751216 11.169596 0.780312 0.476220 0.253990 0.553030 18.099679 -8.412691 3.828226 2.472387 8.729401 -33.759685 5.957164 -14.678456 61.173662 -1.763564 -9.150295 1.338961 -0.127650 -0.428670 -0.058670 -2.623662 -6.289717 -8.661632 6.427889 -10.844289 37.810333 1.823715 -5.658066 -29.234775 3.890346 -6.096120 -12.490232 -34.313746 26.044858 45.367999 -3.259710 16.953290 -9.988400 -9.439401 3.396012 4.350074 -26.891572 1.725083 -2.935857 37.700681 -13.735230 -3.181112 -3.115944 2.821965 0.757110 -0.468290 0.414360 0.073790 8.271603 -4.340105 2.714022 58.763731 -8.502462 -10.546205 -60.551456 15.674360 -2.333287 2.857637 -1.531319 0.031690 -0.037400 -0.345520 -0.225990 
